{"title":"The Lifeguard DVDRip.flv","uid":8762972,"size":463458956,"categoryP":"video","categoryS":"movies","magnet":"?xt=urn:btih:b41d71207e1823df1a5b52bb717bdf510ebec07e&amp;dn=The+Lifeguard+DVDRip.flv&amp;tr=udp%3A%2F%2Ftracker.openbittorrent.com%3A80&amp;tr=udp%3A%2F%2Fopen.demonii.com%3A1337&amp;tr=udp%3A%2F%2Ftracker.coppersurfer.tk%3A6969&amp;tr=udp%3A%2F%2Fexodus.desync.com%3A6969","seeders":1,"leechers":0,"uploader":"globeplus","files":-1,"time":1375279216,"description":"The Lifeguard DVDRip.flv\n\nGeneral INFO :\n\nFormat                                   : Flash Video\nFile size                                : 442 MiB\nDuration                                 : 1h 37mn\nOverall bit rate                         : 632 Kbps\nTagging application                      : Yet Another Metadata Injector for FLV - Version 1.9\n\nVideo\n\nFormat                                   : AVC\nFormat/Info                              : Advanced Video Codec\nFormat profile                           : &lt;a class=&quot;__cf_email__&quot; href=&quot;/cdn-cgi/l/email-protection&quot; data-cfemail=&quot;1951707e7159552a3729&quot;&gt;[email&amp;#160;protected]&lt;/a&gt;&lt;script cf-hash='f9e31' type=&quot;text/javascript&quot;&gt;\n/* &lt;![CDATA[ */!function(){try{var t=&quot;currentScript&quot;in document?document.currentScript:function(){for(var t=document.getElementsByTagName(&quot;script&quot;),e=t.length;e--;)if(t[e].getAttribute(&quot;cf-hash&quot;))return t[e]}();if(t&amp;&amp;t.previousSibling){var e,r,n,i,c=t.previousSibling,a=c.getAttribute(&quot;data-cfemail&quot;);if(a){for(e=&quot;&quot;,r=parseInt(a.substr(0,2),16),n=2;a.length-n;n+=2)i=parseInt(a.substr(n,2),16)^r,e+=String.fromCharCode(i);e=document.createTextNode(e),c.parentNode.replaceChild(e,c)}}}catch(u){}}();/* ]]&gt; */&lt;/script&gt;\nFormat settings, CABAC                   : Yes\nFormat settings, ReFrames                : 4 frames\nCodec ID                                 : 7\nDuration                                 : 1h 37mn\nBit rate                                 : 526 Kbps\nWidth                                    : 640 pixels\nHeight                                   : 352 pixels\nDisplay aspect ratio                     : 16:9\nFrame rate mode                          : Constant\nFrame rate                               : 23.976 fps\nColor space                              : YUV\nChroma subsampling                       : 4:2:0\nBit depth                                : 8 bits\nScan type                                : Progressive\nBits/(Pixel*Frame)                       : 0.097\nStream size                              : 370 MiB (84%)\nWriting library                          : x264 core 118\n\n\nAudio\n\nFormat                                   : AAC\nFormat/Info                              : Advanced Audio Codec\nFormat profile                           : LC\nCodec ID                                 : 10\nDuration                                 : 1h 37mn\nBit rate                                 : 94.4 Kbps\nChannel(s)                               : 2 channels\nChannel positions                        : Front: L R\nSampling rate                            : 44.1 KHz\nCompression mode                         : Lossy\nDelay relative to video                  : 42ms\nStream size                              : 70.3 MiB (16%)\n\n\nPlot\n\nThe Lifeguard is an American independent drama film, written and directed by Liz W. Garcia, and starring Kristen Bell, David Lambert, Mamie Gummer, Martin Starr, Alex Shaffer, Joshua Harto and Amy Madigan. Bell plays Leigh, a reporter who leaves her life in New York City to go back home to get her high school job as a lifeguard. About to turn 30-years-old, she begins a relationship with a troubled 16-year-old.\n\n\n\n\n* enjoy ...\n\n","torrent":{"xt":"urn:btih:b41d71207e1823df1a5b52bb717bdf510ebec07e","amp;dn":"The+Lifeguard+DVDRip.flv","amp;tr":["udp%3A%2F%2Ftracker.openbittorrent.com%3A80","udp%3A%2F%2Fopen.demonii.com%3A1337","udp%3A%2F%2Ftracker.coppersurfer.tk%3A6969","udp%3A%2F%2Fexodus.desync.com%3A6969"],"infoHash":"b41d71207e1823df1a5b52bb717bdf510ebec07e","infoHashBuffer":{"type":"Buffer","data":[180,29,113,32,126,24,35,223,26,91,82,187,113,123,223,81,14,190,192,126]},"announce":[],"urlList":[]}}